# xmcd CD database file
#
# Track frame offsets:
#	150
#	41637
#	83896
#	130268
#	160338
#	182327
#	224033
#
# Disc length: 3574 seconds
#
# Revision: 0
# Processed by: cddbd v1.5.2PL0 Copyright (c) Steve Scherf et al.
# Submitted via: CDex 1.51
#
DISCID=5e0df407
DTITLE=Russell Malone - Live At Jazz Standard Volume Two
DYEAR=2007
DGENRE=Jazz
TTITLE0=Mugshot
TTITLE1=For The Love Of You
TTITLE2=Theme From Gunsmoke
TTITLE3=How About Me?
TTITLE4=Don't Point That Over Here
TTITLE5=Playground
TTITLE6=Sugar Buzz
EXTD=YEAR: 2007
EXTT0=
EXTT1=
EXTT2=
EXTT3=
EXTT4=
EXTT5=
EXTT6=
PLAYORDER=
